<?xml version="1.0" encoding="UTF-8" standalone="no"?>
<!-- Created with Inkscape (http://www.inkscape.org/) -->

<svg
   width="351.8317"
   height="503.25668"
   viewBox="0 0 351.8317 503.25667"
   version="1.1"
   id="svg1"
   xmlns="http://www.w3.org/2000/svg"
   xmlns:svg="http://www.w3.org/2000/svg">
  <defs
     id="defs1" />
  <path
     id="rect1"
     style="fill:#000000;stroke-width:1.05133"
     d="M 42.427734,0 C 34.918563,0 28.873047,6.0455165 28.873047,13.554688 v 2.472656 c 0,0.373098 0.02736,0.74016 0.05664,1.105468 H 13.478516 A 11.446799,11.446799 0 0 0 2.03125,28.580078 v 8.38086 A 10.122089,10.122089 0 0 0 12.154297,47.082031 H 312.7168 a 10.446646,10.446646 0 0 0 10.44726,-10.445312 v -8.91211 A 10.591297,10.591297 0 0 0 312.57227,17.132812 h -20.26954 c 0.0293,-0.365301 0.0547,-0.732377 0.0547,-1.105468 V 13.554688 C 292.35742,6.0455165 286.31191,0 278.80273,0 Z M 11.751953,66.861328 c -6.8396242,0 -12.09327652,5.787161 -11.73437487,12.910156 L 19.941406,475.18945 H 246.89844 a 58.689644,56.445634 0 0 1 -4.16406,-20.50976 58.689644,56.445634 0 0 1 58.68945,-56.44531 58.689644,56.445634 0 0 1 20.71289,3.65039 V 82.083984 c 0,-8.396932 -6.53837,-15.222656 -14.60547,-15.222656 z M 301.32031,403.72266 a 50.511642,49.766659 0 0 0 -50.51172,49.76757 50.511642,49.766659 0 0 0 50.51172,49.76563 50.511642,49.766659 0 0 0 50.51172,-49.76563 50.511642,49.766659 0 0 0 -50.51172,-49.76757 z" />
</svg>
